<svg width="23" height="22" viewBox="0 0 23 22" fill="none" xmlns="http://www.w3.org/2000/svg">
<g clip-path="url(#clip0_12_17)">
<path d="M1.04541 19.2626V2.58632C1.04541 1.56298 1.9127 0.733398 2.98255 0.733398H20.4168C21.4868 0.733398 22.354 1.56298 22.354 2.58632V19.2626C22.354 20.286 21.4868 21.1155 20.4168 21.1155H2.98255C1.9127 21.1155 1.04541 20.286 1.04541 19.2626Z" stroke="black" stroke-width="0.912417"/>
<path d="M14.6055 6.29199H16.5426H18.4797" stroke="black" stroke-width="0.912417" stroke-linecap="round" stroke-linejoin="round"/>
<path d="M14.6055 14.167H16.5426H18.4797" stroke="black" stroke-width="0.912417" stroke-linecap="round" stroke-linejoin="round"/>
<path d="M14.6055 16.9463H16.5426H18.4797" stroke="black" stroke-width="0.912417" stroke-linecap="round" stroke-linejoin="round"/>
<path d="M4.91992 6.29237H6.85707M6.85707 6.29237H8.79421M6.85707 6.29237V4.43945M6.85707 6.29237V8.14529" stroke="black" stroke-width="0.912417" stroke-linecap="round" stroke-linejoin="round"/>
<path d="M5.4873 16.8675L6.85706 15.5573M6.85706 15.5573L8.22683 14.2471M6.85706 15.5573L5.4873 14.2471M6.85706 15.5573L8.22683 16.8675" stroke="black" stroke-width="0.912417" stroke-linecap="round" stroke-linejoin="round"/>
</g>
<defs>
<clipPath id="clip0_12_17">
<rect width="23" height="22" fill="white"/>
</clipPath>
</defs>
</svg>
