<svg width="81" height="55" viewBox="0 0 81 55" fill="none" xmlns="http://www.w3.org/2000/svg">
<path d="M1 3.77368L14.48 10.4378L26.5124 8.52406C30.5741 7.87807 34.7367 8.94615 37.8461 11.4322" stroke="#42FF00" stroke-width="2" stroke-linecap="round" stroke-linejoin="round"/>
<path d="M66.9383 38.7462L47.8795 51.1798C43.6901 53.9132 38.0915 53.9623 33.8457 51.3034L1 30.7356" stroke="#42FF00" stroke-width="2" stroke-linecap="round" stroke-linejoin="round"/>
<path d="M79.9618 30.6036L66.4763 39.0685L45.5527 23.5489L37.8563 28.6945C34.7268 30.7868 30.355 30.2231 27.9735 27.4201C25.5975 24.6236 26.0559 20.6015 29.0109 18.3176L37.0247 12.1238C40.8657 9.15511 45.8587 7.75416 50.8498 8.24475L63.3398 9.4723L79.9618 1.21899" stroke="#42FF00" stroke-width="2" stroke-linecap="round" stroke-linejoin="round"/>
<path d="M45.5554 23.5899C50.5902 27.7105 57.7303 25.6083 60.3851 22.2446" stroke="#42FF00" stroke-linecap="round" stroke-linejoin="round"/>
</svg>
