<svg width="24" height="24" viewBox="0 0 24 24" fill="none" xmlns="http://www.w3.org/2000/svg">
<path d="M20.5161 3.47267C18.271 1.23473 15.2129 0 12.0774 0C5.49677 0 0.116129 5.32476 0.116129 11.8842C0.116129 14.0064 0.658065 16.0129 1.70323 17.865L0 24L6.3871 22.3794C8.12903 23.3055 10.1032 23.8457 12.1161 23.8457C18.6581 23.8071 24 18.4823 24 11.8842C24 8.72026 22.7613 5.7492 20.5161 3.47267ZM12.0387 21.8006C10.2968 21.8006 8.09032 21.0675 6.58065 20.1415L2.82581 21.1061L3.87097 17.4791L3.63871 17.0932C2.67097 15.5113 2.12903 13.6592 2.12903 11.8071C2.12903 6.36656 6.54194 1.96784 12.0387 1.96784C14.671 1.96784 17.1484 3.00965 19.0065 4.86174C20.8645 6.71383 21.9097 9.22187 21.9097 11.8842C21.9871 17.4019 17.4968 21.8006 12.0387 21.8006ZM17.4968 14.3923C17.1871 14.2379 15.7548 13.5048 15.4065 13.4662C15.1355 13.3505 14.9032 13.3119 14.7484 13.6206C14.5935 13.9293 13.9742 14.5466 13.8194 14.7781C13.6645 14.9325 13.5097 15.0096 13.1613 14.8167C12.8516 14.6624 11.9226 14.3923 10.7613 13.3119C9.87097 12.5402 9.25161 11.5756 9.13548 11.2283C8.98065 10.9196 9.09677 10.8039 9.29032 10.6109C9.44516 10.4566 9.6 10.3023 9.71613 10.0707C9.87097 9.9164 9.87097 9.76206 10.0258 9.56913C10.1806 9.41479 10.0645 9.18328 9.9871 9.02894C9.87097 8.8746 9.32903 7.40836 9.05806 6.791C8.82581 6.17364 8.55484 6.28939 8.4 6.28939C8.24516 6.28939 8.0129 6.28939 7.85806 6.28939C7.70323 6.28939 7.31613 6.32798 7.08387 6.67524C6.8129 6.98393 6.03871 7.71704 6.03871 9.18328C6.03871 10.6495 7.08387 12 7.27742 12.2701C7.43226 12.4244 9.40645 15.4727 12.3484 16.7846C13.0452 17.0932 13.5871 17.2862 14.0516 17.4405C14.7484 17.672 15.4065 17.5949 15.9097 17.5563C16.4903 17.5177 17.6516 16.8617 17.9226 16.1286C18.1548 15.4727 18.1548 14.8167 18.0774 14.701C18 14.6238 17.7677 14.508 17.4968 14.3923Z" fill="black"/>
</svg>
