<svg width="20" height="24" viewBox="0 0 20 24" fill="none" xmlns="http://www.w3.org/2000/svg">
<path d="M1.86246 8.48595C1.37632 7.47514 1.22783 6.31177 1.44155 5.18829C1.65527 4.06481 2.21841 3.04852 3.0378 2.30754L3.75007 1.66384C4.06797 1.37693 4.47719 1.23596 4.88785 1.27188C5.29851 1.30781 5.67703 1.5177 5.94028 1.85546L8.4131 5.0325C8.67602 5.37104 8.80195 5.8096 8.76325 6.25197C8.72454 6.69434 8.52438 7.10438 8.20666 7.39211C7.88911 7.67947 7.68903 8.08914 7.65036 8.53114C7.61169 8.97314 7.73759 9.41132 8.00042 9.74946L11.9758 14.8594C12.1061 15.027 12.2662 15.1649 12.447 15.2653C12.6277 15.3656 12.8256 15.4264 13.0291 15.4442C13.2327 15.462 13.4381 15.4365 13.6335 15.3691C13.829 15.3016 14.0106 15.1936 14.1681 15.0512C14.4863 14.7642 14.8959 14.6232 15.3069 14.6592C15.7179 14.6951 16.0968 14.9051 16.3604 15.243L18.8402 18.4366C19.103 18.7748 19.229 19.213 19.1903 19.655C19.1516 20.097 18.9515 20.5066 18.634 20.794L17.9217 21.4377C17.102 22.1785 16.0752 22.5993 15.0112 22.6305C13.9471 22.6616 12.9098 22.3013 12.0708 21.609C7.91075 17.988 4.44533 13.5339 1.86226 8.48821L1.86246 8.48595Z" stroke="black" stroke-width="1.5" stroke-linecap="round" stroke-linejoin="round"/>
</svg>
