<svg width="28" height="27" viewBox="0 0 28 27" fill="none" xmlns="http://www.w3.org/2000/svg">
<g clip-path="url(#clip0_173_36)">
<path d="M14.0012 7.4248C10.5449 7.4248 7.70117 10.1248 7.70117 13.4998C7.70117 16.8326 10.5012 19.5748 14.0012 19.5748C17.4574 19.5748 20.2574 16.8748 20.2574 13.4998C20.2574 10.167 17.4574 7.4248 14.0012 7.4248ZM14.0012 17.6764C11.6387 17.6764 9.66992 15.8201 9.66992 13.4998C9.66992 11.2217 11.5949 9.32324 14.0012 9.32324C16.3637 9.32324 18.2887 11.1795 18.2887 13.4998C18.2887 15.7779 16.3637 17.6764 14.0012 17.6764Z" fill="black"/>
<path d="M20.5625 4.89355C19.6875 4.89355 19.0312 5.56855 19.0312 6.37012C19.0312 7.17168 19.7313 7.84668 20.5625 7.84668C21.3937 7.84668 22.0938 7.17168 22.0938 6.37012C22.0938 5.56855 21.4375 4.89355 20.5625 4.89355Z" fill="black"/>
<path d="M20.5193 0.759277H7.48184C3.76309 0.759277 0.788086 3.62803 0.788086 7.21396V19.828C0.788086 23.3718 3.80684 26.2827 7.48184 26.2827H20.5631C24.2381 26.2827 27.2568 23.3718 27.2568 19.828V7.21396C27.2568 3.62803 24.2381 0.759277 20.5193 0.759277ZM25.2881 19.7858C25.2881 22.3171 23.1881 24.3421 20.5631 24.3421H7.48184C4.85684 24.3421 2.75684 22.3171 2.75684 19.7858V7.21396C2.75684 4.68271 4.90059 2.65771 7.48184 2.65771H20.5193C23.1443 2.65771 25.2443 4.7249 25.2443 7.21396V19.7858H25.2881Z" fill="black"/>
</g>
<defs>
<clipPath id="clip0_173_36">
<rect width="28" height="27" fill="white"/>
</clipPath>
</defs>
</svg>
