<svg width="59" height="57" viewBox="0 0 59 57" fill="none" xmlns="http://www.w3.org/2000/svg">
<path d="M10.8652 28.5L19.6345 34.8462L34.9806 17.9231" stroke="#42FF00" stroke-width="2" stroke-linecap="round" stroke-linejoin="round"/>
<path d="M51.4231 1H9.76923C7.4435 1 5.213 1.89148 3.56846 3.47834C1.9239 5.06518 1 7.21741 1 9.46154V56L11.9615 49.6538L22.9231 56L33.8846 49.6538L44.8462 56V7.34615C44.8462 5.66307 45.5389 4.04886 46.7723 2.85875C48.0057 1.66861 49.6789 1 51.4231 1ZM51.4231 1C53.1673 1 54.8404 1.66861 56.0738 2.85875C57.3072 4.04886 58 5.66307 58 7.34615V22.1538H44.8462" stroke="#42FF00" stroke-width="2" stroke-linecap="round" stroke-linejoin="round"/>
</svg>
