<svg width="94" height="24" viewBox="0 0 94 24" fill="none" xmlns="http://www.w3.org/2000/svg">
<path d="M0.95375 23V0.599998H4.15375V20.216H16.2818V23H0.95375ZM29.6595 23.256C27.9528 23.256 26.3635 22.968 24.8915 22.392C23.4408 21.816 22.1822 21.016 21.1155 19.992C20.0488 18.9467 19.2168 17.7307 18.6195 16.344C18.0222 14.9573 17.7235 13.4427 17.7235 11.8C17.7235 10.1573 18.0222 8.64267 18.6195 7.256C19.2168 5.86933 20.0488 4.664 21.1155 3.64C22.1822 2.59467 23.4408 1.784 24.8915 1.208C26.3422 0.631999 27.9315 0.344 29.6595 0.344C31.3662 0.344 32.9342 0.631999 34.3635 1.208C35.8142 1.76267 37.0728 2.56267 38.1395 3.608C39.2275 4.632 40.0595 5.83733 40.6355 7.224C41.2328 8.61067 41.5315 10.136 41.5315 11.8C41.5315 13.464 41.2328 14.9893 40.6355 16.376C40.0595 17.7627 39.2275 18.9787 38.1395 20.024C37.0728 21.048 35.8142 21.848 34.3635 22.424C32.9342 22.9787 31.3662 23.256 29.6595 23.256ZM29.6595 20.408C30.8968 20.408 32.0382 20.1947 33.0835 19.768C34.1502 19.3413 35.0675 18.744 35.8355 17.976C36.6248 17.1867 37.2328 16.2693 37.6595 15.224C38.1075 14.1787 38.3315 13.0373 38.3315 11.8C38.3315 10.5627 38.1075 9.42133 37.6595 8.376C37.2328 7.33067 36.6248 6.424 35.8355 5.656C35.0675 4.86666 34.1502 4.25867 33.0835 3.832C32.0382 3.40533 30.8968 3.192 29.6595 3.192C28.4008 3.192 27.2382 3.40533 26.1715 3.832C25.1262 4.25867 24.2088 4.86666 23.4195 5.656C22.6302 6.424 22.0115 7.33067 21.5635 8.376C21.1368 9.42133 20.9235 10.5627 20.9235 11.8C20.9235 13.0373 21.1368 14.1787 21.5635 15.224C22.0115 16.2693 22.6302 17.1867 23.4195 17.976C24.2088 18.744 25.1262 19.3413 26.1715 19.768C27.2382 20.1947 28.4008 20.408 29.6595 20.408ZM56.5345 23.256C54.8065 23.256 53.2172 22.9787 51.7665 22.424C50.3158 21.848 49.0572 21.048 47.9905 20.024C46.9238 18.9787 46.0918 17.7627 45.4945 16.376C44.8972 14.9893 44.5985 13.464 44.5985 11.8C44.5985 10.136 44.8972 8.61067 45.4945 7.224C46.0918 5.83733 46.9238 4.632 47.9905 3.608C49.0785 2.56267 50.3478 1.76267 51.7985 1.208C53.2492 0.631999 54.8492 0.344 56.5985 0.344C58.3692 0.344 59.9905 0.631999 61.4625 1.208C62.9345 1.784 64.1825 2.648 65.2065 3.8L63.2225 5.784C62.3052 4.888 61.3025 4.23733 60.2145 3.832C59.1478 3.40533 57.9852 3.192 56.7265 3.192C55.4465 3.192 54.2518 3.40533 53.1425 3.832C52.0545 4.25867 51.1052 4.856 50.2945 5.624C49.5052 6.392 48.8865 7.30933 48.4385 8.376C48.0118 9.42133 47.7985 10.5627 47.7985 11.8C47.7985 13.016 48.0118 14.1573 48.4385 15.224C48.8865 16.2693 49.5052 17.1867 50.2945 17.976C51.1052 18.744 52.0545 19.3413 53.1425 19.768C54.2305 20.1947 55.4145 20.408 56.6945 20.408C57.8892 20.408 59.0305 20.2267 60.1185 19.864C61.2278 19.48 62.2518 18.8507 63.1905 17.976L65.0145 20.408C63.9052 21.3467 62.6038 22.0613 61.1105 22.552C59.6385 23.0213 58.1132 23.256 56.5345 23.256ZM61.9425 19.992V11.672H65.0145V20.408L61.9425 19.992ZM81.2533 23.256C79.5466 23.256 77.9573 22.968 76.4853 22.392C75.0346 21.816 73.7759 21.016 72.7093 19.992C71.6426 18.9467 70.8106 17.7307 70.2133 16.344C69.6159 14.9573 69.3173 13.4427 69.3173 11.8C69.3173 10.1573 69.6159 8.64267 70.2133 7.256C70.8106 5.86933 71.6426 4.664 72.7093 3.64C73.7759 2.59467 75.0346 1.784 76.4853 1.208C77.9359 0.631999 79.5253 0.344 81.2533 0.344C82.9599 0.344 84.5279 0.631999 85.9573 1.208C87.4079 1.76267 88.6666 2.56267 89.7333 3.608C90.8213 4.632 91.6533 5.83733 92.2293 7.224C92.8266 8.61067 93.1253 10.136 93.1253 11.8C93.1253 13.464 92.8266 14.9893 92.2293 16.376C91.6533 17.7627 90.8213 18.9787 89.7333 20.024C88.6666 21.048 87.4079 21.848 85.9573 22.424C84.5279 22.9787 82.9599 23.256 81.2533 23.256ZM81.2533 20.408C82.4906 20.408 83.6319 20.1947 84.6772 19.768C85.7439 19.3413 86.6613 18.744 87.4293 17.976C88.2186 17.1867 88.8266 16.2693 89.2533 15.224C89.7013 14.1787 89.9253 13.0373 89.9253 11.8C89.9253 10.5627 89.7013 9.42133 89.2533 8.376C88.8266 7.33067 88.2186 6.424 87.4293 5.656C86.6613 4.86666 85.7439 4.25867 84.6772 3.832C83.6319 3.40533 82.4906 3.192 81.2533 3.192C79.9946 3.192 78.8319 3.40533 77.7653 3.832C76.7199 4.25867 75.8026 4.86666 75.0133 5.656C74.2239 6.424 73.6053 7.33067 73.1573 8.376C72.7306 9.42133 72.5173 10.5627 72.5173 11.8C72.5173 13.0373 72.7306 14.1787 73.1573 15.224C73.6053 16.2693 74.2239 17.1867 75.0133 17.976C75.8026 18.744 76.7199 19.3413 77.7653 19.768C78.8319 20.1947 79.9946 20.408 81.2533 20.408Z" fill="black"/>
</svg>
