<svg width="63" height="55" viewBox="0 0 63 55" fill="none" xmlns="http://www.w3.org/2000/svg">
<path d="M53.7542 5.00024L31.2514 35.7145L20 25.4764" stroke="#42FF00" stroke-width="4" stroke-linecap="round" stroke-linejoin="round"/>
<path d="M33.8683 2.33406L41.3467 16.0129C41.5168 16.3601 41.7843 16.6609 42.1227 16.8852C42.4611 17.1095 42.8584 17.2495 43.2751 17.2913L59.7839 19.5072C60.2622 19.5629 60.7128 19.7406 61.0834 20.0197C61.454 20.2987 61.7297 20.6676 61.8773 21.0831C62.0255 21.4987 62.0396 21.9438 61.9187 22.3665C61.7983 22.7892 61.5472 23.172 61.1949 23.4703L49.2953 34.1662C48.9919 34.4233 48.7638 34.745 48.6326 35.1023C48.5009 35.4595 48.4703 35.8409 48.5427 36.2116L51.4118 51.2539C51.4951 51.6865 51.4424 52.1309 51.2604 52.5375C51.0783 52.944 50.774 53.296 50.3818 53.5538C49.99 53.8112 49.5257 53.9637 49.0427 53.9944C48.5597 54.0247 48.0766 53.9318 47.6491 53.7255L32.7865 46.6091C32.4059 46.4399 31.9876 46.3521 31.5636 46.3521C31.1396 46.3521 30.7213 46.4399 30.3407 46.6091L15.478 53.7255C15.0504 53.9318 14.5676 54.0247 14.0845 53.9944C13.6014 53.9637 13.1374 53.8112 12.7454 53.5538C12.3533 53.296 12.0489 52.944 11.8668 52.5375C11.6848 52.1309 11.6322 51.6865 11.7153 51.2539L14.5843 36.0412C14.6571 35.6704 14.6263 35.2891 14.4949 34.9319C14.3635 34.5746 14.1355 34.2528 13.8318 33.9957L1.79112 23.4703C1.4349 23.1639 1.18438 22.7704 1.06992 22.3377C0.955459 21.9049 0.981967 21.4513 1.14622 21.0319C1.31049 20.6125 1.60545 20.2453 1.99539 19.9746C2.38534 19.704 2.85352 19.5416 3.34323 19.5072L19.8522 17.2913C20.2689 17.2495 20.6662 17.1095 21.0046 16.8852C21.3429 16.6609 21.6105 16.3601 21.7805 16.0129L29.2589 2.33406C29.4626 1.93567 29.7878 1.59837 30.1962 1.36199C30.6045 1.1256 31.079 1 31.5636 1C32.0482 1 32.5227 1.1256 32.9311 1.36199C33.3394 1.59837 33.6646 1.93567 33.8683 2.33406Z" stroke="#42FF00" stroke-width="2" stroke-linecap="round" stroke-linejoin="round"/>
</svg>
