<svg width="22" height="25" viewBox="0 0 22 25" fill="none" xmlns="http://www.w3.org/2000/svg">
<path d="M1.13408 9.02015C0.573792 7.94685 0.396663 6.71446 0.631994 5.52681C0.867324 4.33917 1.50101 3.26743 2.42824 2.48889L3.23425 1.81256C3.59399 1.51111 4.05867 1.36477 4.52623 1.40567C4.99379 1.44658 5.426 1.67139 5.72793 2.03073L8.56413 5.41078C8.86569 5.77094 9.01206 6.23603 8.97112 6.70398C8.93018 7.17193 8.70527 7.60453 8.34575 7.90685C7.98641 8.20878 7.7616 8.64099 7.72069 9.10855C7.67979 9.57611 7.82613 10.0408 8.12758 10.4005L12.6871 15.837C12.8366 16.0153 13.0198 16.1624 13.2262 16.2699C13.4326 16.3773 13.6581 16.4431 13.8899 16.4634C14.1217 16.4836 14.3552 16.458 14.5771 16.388C14.799 16.318 15.005 16.205 15.1832 16.0554C15.5433 15.7538 16.0084 15.6074 16.4764 15.6484C16.9443 15.6893 17.3769 15.9142 17.6792 16.2738L20.5235 19.6714C20.825 20.0311 20.9713 20.4958 20.9304 20.9634C20.8895 21.4309 20.6647 21.8631 20.3054 22.1651L19.4994 22.8414C18.5718 23.6197 17.4063 24.058 16.1957 24.0835C14.9851 24.109 13.8021 23.7203 12.8426 22.9817C8.08329 19.1199 4.10862 14.3813 1.13387 9.02254L1.13408 9.02015Z" stroke="black" stroke-width="0.91" stroke-linecap="round" stroke-linejoin="round"/>
</svg>
